/* XPM */
static char *_35536eba49a4f1a8f1d131948d81c13IVAkRNoYYcTddc6Z[] = {
/* columns rows colors chars-per-pixel */
"64 64 77 1 ",
"  c #020301",
". c #030502",
"X c #030404",
"o c #040506",
"O c #0B0201",
"+ c #070904",
"@ c #090C06",
"# c #090C0E",
"$ c #0E120A",
"% c #10140C",
"& c #14180E",
"* c #14180F",
"= c #0E1215",
"- c #161A11",
"; c #171C12",
": c #181D12",
"> c #191E14",
", c #351410",
"< c #00250F",
"1 c #1B2214",
"2 c #1D2317",
"3 c #1D2418",
"4 c #003A12",
"5 c #23281B",
"6 c #242A1C",
"7 c #242C1E",
"8 c #151A20",
"9 c #1F262F",
"0 c #272E20",
"q c #2B3223",
"w c #313827",
"e c #333C2B",
"r c #343D2B",
"t c #522B26",
"y c #46332D",
"u c #5D342E",
"i c #633027",
"p c #603630",
"a c #683C35",
"s c #0A5217",
"d c #0E640D",
"f c #3A412D",
"g c #3D4633",
"h c #424E32",
"j c #49533E",
"k c #505E39",
"l c #7C4537",
"z c #76483F",
"x c #2B3643",
"c c #324E60",
"v c #525A42",
"b c #555E44",
"n c #5A6344",
"m c #5F6A53",
"M c #9F6149",
"N c #B67955",
"B c #75805A",
"V c #71805E",
"C c #788263",
"Z c #788661",
"A c #8C9673",
"S c #8EA26E",
"D c #92A36F",
"F c #98A47A",
"G c #CC8A55",
"H c #A5C27A",
"J c #ADC57E",
"K c #A6B189",
"L c #ADB88A",
"P c #A9B4B8",
"I c #CCD595",
"U c #C9EC8B",
"Y c #FCFF9E",
"T c #C7D3A0",
"R c #EDF7AC",
"E c #FFFFB2",
"W c white",
/* pixels */
"yyyyyyyyyyyyyyyyyyyyyyyyyyyyyyyyyyyyyyyyyyyyyyyyyyyyyyyyyyyyyyyy",
"yyyyyyyyyyyyyyyyyyyyyyyyyyyyyyyyyyyyyyyyyyyyyyyyyyyyyyyyyyyyyyyy",
"yyyyyyyyyyyyyyyyyyyyyyyyyyyyy@@@@@@yyyyyyyyyyyyyyyyyyyyyyyyyyyyy",
"yyyyyyyyyyyyyyyyyyyyyyyyy...@KTRREE@...yyyyyyyyyyyyyyyyyyyyyyyyy",
"yyyyyyyyyyyyyyyyyyyyyyy..mmmwKTRRREwmZZ..yyyyyyyyyyyyyyyyyyyyyyy",
"yyyyyyyyyyyyyyyyyyyyy..mmZmjwCKTRREwjmZSS..yyyyyyyyyyyyyyyyyyyyy",
"yyyyyyyyyyyyyyyyyyyy.gjmSZmjwCKTRREwjjSSJSZ.yyyyyyyyyyyyyyyyyyyy",
"yyyyyyyyyyyyyyyyyyy gjmSJSmwCCKKTREEwjVSJJSZ.yyyyyyyyyyyyyyyyyyy",
"yyyyyyyyyyyyyyyyyy qjjVSSVjwCCAKTRREwjVSSUUSZ.yyyyyyyyyyyyyyyyyy",
"yyyyyyyyyyyyyyyyy.qejjVVSVjwCCAKKTREwjVSSUYUSS.yyyyyyyyyyyyyyyyy",
"yyyyyyyyyyyyyyyyy qejjVVVVjwvCAKKTRRwjmVSHUYUS.yyyyyyyyyyyyyyyyy",
"yyyyyyyyyyyyyyyy.qqejjmVVmjwvCCAKTRRwjmmVSHUHSS.yyyyyyyyyyyyyyyy",
"yyyyyyyyyyyyyyyy qqeejjmmmj5vCCAKTTRwjmmmVSHSSS.yyyyyyyyyyyyyyyy",
"yyyyyyyyyyyyyyy.q2qeejjjmme5vCCCATTRwjjmmmVSSSVm.yyyyyyyyyyyyyyy",
"yyyyyyyyyyyyyyy.q2qqeejjjee5vvCCCCLT5ejjjmmmVVmm.yyyyyyyyyyyyyyy",
"yyyyyyyyyyyyyyy q22qqeee5555wwwwwwww555wjjjjjmmm.yyyyyyyyyyyyyyy",
"yyyyyyyyyyyyyy.q22225555RRTTTRRREERRTTTRwwwwjjjmm.yyyyyyyyyyyyyy",
"yyyyyyyyyyyyyy.q2;;;TRRRKCCCKKTRRRTKKCCCTTRRwwwjm.yyyyyyyyyyyyyy",
"yyyyyyyyyyyyyy.55FFTIKKC2222CCKKIKKC2222CCKKRREww.yyyyyyyyyyyyyy",
"yyyyyyyyyyyyyy+BFCKKKC22liii2CCKKKC2lMMM22CKKIIRR@yyyyyyyyyyyyyy",
"yyyyyyyyyyyyy@nbCKKCC2#####li2CCKC2lM#####2CKKIIKT@yyyyyyyyyyyyy",
"yyyyyyyyyyyyy@fvCKCC2==889x#l2vCCC2M#xx99982CKKIKC@yyyyyyyyyyyyy",
"yyyyyyyyyyyyy@fvCCCv2ooo=889#i2CC2l#9988ooo2CCKKCv@yyyyyyyyyyyyy",
"yyyyyyyyyyyyyO*vCCv2ppiiooo8#p2CC2l#8oooiiii2CCCv2Oyyyyyyyyyyyyy",
"yyyyyyyyyyyyONN2vCv2piiiiipopp2vC2MMopiilzii2CCv2GNOyyyyyyyyyyyy",
"yyyyyyyyyyyOlMMN2vv2pizl   ppil22lMll   lllz2Cv2NNMNOyyyyyyyyyyy",
"yyyyyyyyyyyOl,MM2fvv2zl P4< illllMMl <4P ll2CCv2MM,MOyyyyyyyyyyy",
"yyyyyyyyyyyOli,ll*fv2lllWsdiillMMNMlMdsWMMl2Cv2MM,MMOyyyyyyyyyyy",
"yyyyyyyyyyyOlli,li*vv2lMMMllilMMNGMMMMNNMM2vv2lM,lMMOyyyyyyyyyyy",
"yyyyyyyyyyyyOli,lo=*22MMNNMlilMNNGNMMNGGNN2228ol,lMOyyyyyyyyyyyy",
"yyyyyyyyyyy ,ll,io=ollMMMNMMtlMMNNNaMNNGNMMMo8ol,lM, yyyyyyyyyyy",
"yyyyyyyyyy ==,li,o=oillMMMMtlllMMNMMuMNNNMMlo8o,lM,9x yyyyyyyyyy",
"yyyyyyyyy ===,iiio=oizllMMl,illlMMMM,MMNMMlio8ollM,99x yyyyyyyyy",
"yyyyyyyy =#===,io=88oizlllli,,illl,,lMMMMlio889ol,9x#8x yyyyyyyy",
"yyyyyyyyy =====,o=89oiizlzllli,,,,llMMMMMllo8999o99x9#89 yyyyyyy",
"yyyyyyyy ====8==o889oiiizllMMlliillMNNMMMMlo899xo989x# 8 yyyyyyy",
"yyyyyyy ====88==o889oiizzlMMMMMlllMNNGNMMMlo998x#989x y 9 yyyyyy",
"yyyyyy ==#=88==o=89xoiiizlMM,,,,,,,,MNNNMlio9989x#989x y  yyyyyy",
"yyyyy ==#==88==#89x9oiiizl,,lMMNGGNN,,MMMlio9989c#988xc y yyyyyy",
"yyyyy =##=88==#88x9#=oiiizlzzlMMNNMMMMMMlio99989c#9889x yyyyyyyy",
"yyyy = #==89=#=89x#==8oiiizlzzt,,tlMMMMllo99x988x#99=89x yyyyyyy",
"yyyy  y =898#=8899#8=89oiiozllliilllMlolo999x99#9c#9#889x yyyyyy",
"yyyyyy =8898#=898#888889oiooizlollollloo9999xx9#8c#9x#89x yyyyyy",
"yyyyy ==89x#=88#8#8988899o99oiioio8oio9999x9xx99#x#9x#889x yyyyy",
"yyyy ===89x#=8#88#898=89x8998oo8o899o9x998x99cx9#9x#9x#=89 yyyyy",
"yyyy ===8x9#=8#89#898=89x#89988=889999c998c99cx9#9x#9x# =89 yyyy",
"yyy ===89x#==#889#898=899#889#==8=x9=9x98=c99c99#99#99 y =8 yyyy",
"yyy ==#89c#==#889#=99#889x#=89#=#c98#c998#x98c98#89#99x y 8 yyyy",
"yy ==#=89c#=#=8899=99#8889x#889#x98#9x988#x98x98#89#989x y  yyyy",
"yy =#==88x#=#=889x=89x#889xc#89#98#9x988#x989x98#89#989xc y yyyy",
"yy =#==88x#=#=888x=889#=889x#=8#8#9x988=#x98x988#8#x9889x yyyyyy",
"yy #====89#=#==889x=89x#=899x#=#8#9988=#c988x98=#=#x99899c yyyyy",
"yy  ====899#9#=8889==89x#=8999#=#9988=#c998x988##=#989#89x yyyyy",
"yy y =#=889#9#==8899==89c#=899#=#998=#c9988998=###x9898#89x yyyy",
"yyyy ==#=89x99#==8898==89c#=898#=98=#x9988998=#=##98x98X899 yyyy",
"yy  X==#=889c89#===88#==89x#=88#88=#x99889988=#=#998x88X889X .yy",
"..53-X=8#=889x89#===88##=899#=8#8=#9998=8988=#=8998x98X$X89Xmr..",
"g5jq0-X=8X=889889##===88#=899#=#==#998=8988=#8#8988998X>X8X0rmrm",
"5gqjr0-X=8X=889=8#=##==88#=899##=#998==88==#89#8989988X$X8X3mrZr",
"g5jqmrw-X8XX=889=#==8#===8#=889#=#98=#88=##899X=8=988X%eXX-mhZhm",
"5jqjrm-w-XX3X=88=#==88##==8#=88#=#8=#88=#=8998X=8=88X%eX0-ZhZhZr",
"6qjqjrm10-X%>X=88#===888##=8#=8=#8=#8==#=8998X$X=8=X%3r07ZhZhZhm",
"*q:jqjr0-0#0%X==88#====888#=8#==#8=#==#=8988=X>X==X-3rmrZhZkZhmr",
"6*q:q3jr0-0%3$X===8#====888#=#==#=#==#=8888=#>%0X=X33mrmhZkDhZrm"
};
