/* XPM */
static char *_f9d32c984ce4256e14174d3098cff9bSP13viPCUX4GKfB8[] = {
/* columns rows colors chars-per-pixel */
"64 64 20 1 ",
"  c black",
". c #272727",
"X c gray16",
"o c #2A2A2A",
"O c gray17",
"+ c #2C2C2C",
"@ c #2D2D2D",
"# c #323232",
"$ c #353535",
"% c gray21",
"& c #373737",
"* c #3C3C3C",
"= c #3F3F3F",
"- c gray25",
"; c gray26",
": c #434343",
"> c #444444",
", c gray27",
"< c #464646",
"1 c #4B4B4B",
/* pixels */
"&&&&&&11<<<<<<----&&@@&&&&&&11<<<<<<----&&@@&&&&&&11<<<<----&&@@",
"&&&&&&11<<<<<<----&&@@&&&&&&11<<<<<<----&&@@&&&&&&11<<<<----&&@@",
"&&11<<<<<<------****@@&&11<<<<<<------****@@&&11<<<<<<----****@@",
"&&11<<<<<<------****@@&&11<<<<<<------****@@&&11<<<<<<----****@@",
"<<<<<<----------****@@<<<<<<--------******@@<<<<<<--------****@@",
"<<<<<<----------****@@<<<<<<--------******@@<<<<<<--------****@@",
"<<--------********&&@@<<--------********&&@@<<--------******&&@@",
"<<--------********&&@@<<--------********&&@@<<--------******&&@@",
"------********&&&&&&@@------        **&&&&@@------******&&&&&&@@",
"------********&&&&&&@@---              &&&@@------******&&&&&&@@",
"--&&&&&&&&&&&&&&&&&&@@-                  &@@--&&&&&&&&&&&&&&&&@@",
"--&&&&&&&&&&&&&&&&&&@                      @--&&&&&&&&&&&&&&&&@@",
"&&&&&&&&&&&&&&&&&&##                        &&&&&&&&&&&&&&&&##@@",
"&&&&&&&&&&&&&&&&&&                            &&&&&&&&&&&&&&##@@",
"@@@@@@@@@@@@@@@@@                              @@@@@@@@@@@@@@@@@",
"@@@@@@@@@@@@@@@@                                @@@@@@@@@@@@@@@@",
"<<----&&@@&&&&&                                  -&&@@&&&&&&<<--",
"<<----&&@@&&&&&                                  -&&@@&&&&&&<<--",
"----****@@&&11                                    **@@&&<<------",
"----****@@&&11                                    **@@&&<<------",
"----****@@<<<                                      *@@<<--------",
"----****@@<<<                                      *@@<<--------",
"******&&@@<<<                                      *@@<<--------",
"******&&@@<<                                        @@<<--------",
"**&&&&&&@@--                                        @@------****",
"**&&&&&&@@--                                        @@------****",
"&&&&&&&&@@--                                        @@--&&&&&&&&",
"&&&&&&&&@@--                                        O@*-&&&&&&&&",
"&&&&&&##@@&&                                        OO&&&&&&&&&&",
"&&&&&&##@@&&                                        .O&&&&&&&&&&",
"@@@@@@@@@@@@                                        .OO@@@@@@@@@",
"@@@@@@@@@@@@                                        OO@@@@@@@@@@",
"&&&&&&11<<<<                                        -<<<----&&@@",
"&&&&1111<<<<                                        <<<<----&&@@",
"&&11<<<<<<--                                        <<----****@@",
"1111<<<<<<--                                        <<----****@@",
"<<<<<<------                                        ------****@@",
"<<<<<<------                                        ------****@@",
"<<--------**                                        --******&&@@",
"<<--------**                                        --******&&@@",
"------******                                        ****&&&&&&@@",
"------******                                        ****&&&&&&@@",
"--&&&&&&&&&&                                        &&&&&&&&&&@@",
"--&&&&&&&&&&                                        &&&&&&&&&&@@",
"&&&&&&&&&&&&                                        &&&&&&&&##@@",
"&&&&&&&&&&&&                                        &&&&&&&&##@@",
"@@@@@@@@@@@@                                        @@@@@@@@@@@@",
"@@@@@@@@@@@@                                        @@@@@@@@@@@@",
"<<----&&@@&&                                        @@&&&&&&<<--",
"<<----&&@@&&                                        @@&&&&&&<<--",
"----****@@&&                                        @@&&<<------",
"----****@@&&                                        O@&&<<------",
"----****@@<<                                        OO<<--------",
"----****@@<<                                        .O-<--------",
"******&&@@<<                                        .O-<--------",
"******&&@@<<                                        OO<<--------",
"**&&&&&&@@--                                        O@*-----****",
"**&&&&&&@@--                                        @@------****",
"&&&&&&&&@@&&                                        @@--&&&&&&&&",
"&&&&&&&&@@&&                                        @@--&&&&&&&&",
"&&&&&&##@@&&                                        @@&&&&&&&&&&",
"&&&&&&##@@&&                                        @@&&&&&&&&&&",
"@@@@@@@@@@@@                                        @@@@@@@@@@@@",
"@@@@@@@@@@@@                                        @@@@@@@@@@@@"
};
